<?xml version="1.0" encoding="iso-8859-1"?>
<!-- Generator: Adobe Illustrator 18.1.1, SVG Export Plug-In . SVG Version: 6.00 Build 0)  -->
<svg version="1.1" id="Capa_1" xmlns="http://www.w3.org/2000/svg" xmlns:xlink="http://www.w3.org/1999/xlink" x="0px" y="0px"
	 viewBox="0 0 180.577 180.577" style="enable-background:new 0 0 180.577 180.577;" xml:space="preserve">
<g>
	<path style="fill:#206052;" d="M170.167,71.619h-23.839c0.114-9.633-0.109-25.27-0.468-51.372
		c-0.087-5.689-4.727-10.269-10.421-10.269h-19.102c-3.949,0-7.555,2.23-9.317,5.76L71.698,86.38h-2.132
		c-1.545-3.818-5.292-6.511-9.66-6.511H10.421C4.661,79.87,0,84.537,0,90.291v69.887c0,5.755,4.661,10.421,10.421,10.421h49.485
		c5.76,0,10.421-4.667,10.421-10.421v-3.03l5.858-0.245l8.871,10.133c1.974,2.268,4.835,3.563,7.838,3.563h77.267
		c5.76,0,10.416-4.667,10.416-10.421V82.035C180.582,76.286,175.921,71.619,170.167,71.619z M49.485,149.756H20.832v-49.055h28.653
		v46.45V149.756z M159.745,149.756h-62.12l-9.04-10.329c-2.078-2.377-5.075-3.633-8.273-3.552l-9.981,0.413v-29.072h7.811
		c3.954,0,7.555-2.235,9.323-5.76l35.31-70.643h2.382c0.261,22.251,0.354,44.089,0.098,48.962c-0.158,0.723-0.245,1.485-0.245,2.263
		c0,5.749,4.661,10.416,10.41,10.416h24.329v57.301H159.745z"/>
</g>
<g>
</g>
<g>
</g>
<g>
</g>
<g>
</g>
<g>
</g>
<g>
</g>
<g>
</g>
<g>
</g>
<g>
</g>
<g>
</g>
<g>
</g>
<g>
</g>
<g>
</g>
<g>
</g>
<g>
</g>
</svg>
